<svg width="24" height="20" viewBox="0 0 24 20" fill="none" xmlns="http://www.w3.org/2000/svg">
<g clip-path="url(#clip0_961_8976)">
<path d="M13.2955 0V19.7398H17.3854V3.53264H23.5V0H13.2955Z" fill="#001629"/>
<path d="M10.7045 0V12.2831C10.7045 16.3838 8.08736 19.2529 4.02126 19.8711C3.47879 19.957 2.90778 19.9976 2.31773 19.9976C1.72768 19.9976 1.09957 19.9475 0.5 19.8568V16.2549C0.799783 16.2883 1.1067 16.3074 1.416 16.3074C2.39624 16.3074 3.27894 16.1308 4.02126 15.7966C5.64627 15.071 6.61938 13.6221 6.61938 11.7365V0H10.7069H10.7045Z" fill="#001629"/>
<path d="M4.02126 0H0.5V3.53264H4.02126V0Z" fill="#001629"/>
</g>
<defs>
<clipPath id="clip0_961_8976">
<rect width="23" height="20" fill="white" transform="translate(0.5)"/>
</clipPath>
</defs>
</svg>
