<svg width="150" height="21" viewBox="0 0 150 21" fill="none" xmlns="http://www.w3.org/2000/svg">
<g clip-path="url(#clip0_1249_14)">
<path d="M11.4509 0V12.285C11.4509 15.1659 9.25405 17.0707 5.92974 17.0707C3.51344 17.0707 1.31657 16.0097 -0.00256348 14.3521V18.8107C1.69995 20.1439 4.30794 20.9302 6.89071 20.9302C12.2177 20.9302 15.7892 17.7223 15.7892 12.8567V0H11.4509Z" fill="white"/>
<path d="M18.5359 0V3.69724H26.2817V20.6581H30.6199V3.69724H38.338V0H18.5359Z" fill="white"/>
<path d="M56.8462 0H53.03L43.2791 20.2512V20.6581H47.92L49.8167 16.4191H60.0595L61.9537 20.6581H66.5946V20.2512L56.8462 0ZM51.4637 12.7219L54.952 4.89304L58.4125 12.7219H51.4637Z" fill="white"/>
<path d="M69.3439 0V20.6581H86.2328V16.9634H73.6821V0H69.3439Z" fill="white"/>
<path d="M88.9795 0V20.6581H105.868V16.9634H93.3177V0H88.9795Z" fill="white"/>
<path d="M108.615 0V20.6581H126.601V16.9634H112.953V11.933H125.476V8.23828H112.953V3.69724H126.601V0H108.615Z" fill="white"/>
<path d="M145.77 0V14.3246L134.128 0H129.898V20.6581H134.128V6.33349L145.77 20.6581H150V0H145.77Z" fill="white"/>
</g>
<defs>
<clipPath id="clip0_1249_14">
<rect width="150" height="20.9302" fill="white"/>
</clipPath>
</defs>
</svg>
